<svg id="svg" xmlns="http://www.w3.org/2000/svg" xmlns:xlink="http://www.w3.org/1999/xlink" width="400" height="124.13793103448276" viewBox="0, 0, 400,124.13793103448276"><g id="svgg"><path id="path0" d="M234.483 48.276 L 234.483 96.552 262.069 96.552 L 289.655 96.552 289.655 89.655 L 289.655 82.759 296.552 82.759 L 303.448 82.759 303.448 48.276 L 303.448 13.793 296.552 13.793 L 289.655 13.793 289.655 6.897 L 289.655 0.000 262.069 0.000 L 234.483 0.000 234.483 48.276 M331.034 48.276 L 331.034 96.552 358.621 96.552 L 386.207 96.552 386.207 89.655 L 386.207 82.759 393.103 82.759 L 400.000 82.759 400.000 68.966 L 400.000 55.172 393.103 55.172 L 386.207 55.172 386.207 48.276 L 386.207 41.379 393.103 41.379 L 400.000 41.379 400.000 27.586 L 400.000 13.793 393.103 13.793 L 386.207 13.793 386.207 6.897 L 386.207 0.000 358.621 0.000 L 331.034 0.000 331.034 48.276 M165.517 48.276 L 165.517 82.759 172.414 82.759 L 179.310 82.759 179.310 89.655 L 179.310 96.552 193.103 96.552 L 206.897 96.552 206.897 89.655 L 206.897 82.759 193.103 82.759 L 179.310 82.759 179.310 62.069 L 179.310 41.379 193.103 41.379 L 206.897 41.379 206.897 34.483 L 206.897 27.586 193.103 27.586 L 179.310 27.586 179.310 20.690 L 179.310 13.793 172.414 13.793 L 165.517 13.793 165.517 48.276 M289.655 48.276 L 289.655 82.759 268.966 82.759 L 248.276 82.759 248.276 48.276 L 248.276 13.793 268.966 13.793 L 289.655 13.793 289.655 48.276 M386.207 27.586 L 386.207 41.379 365.517 41.379 L 344.828 41.379 344.828 27.586 L 344.828 13.793 365.517 13.793 L 386.207 13.793 386.207 27.586 M0.000 62.069 L 0.000 96.552 6.897 96.552 L 13.793 96.552 13.793 75.862 L 13.793 55.172 20.690 55.172 L 27.586 55.172 27.586 48.276 L 27.586 41.379 34.483 41.379 L 41.379 41.379 41.379 68.966 L 41.379 96.552 48.276 96.552 L 55.172 96.552 55.172 68.966 L 55.172 41.379 48.276 41.379 L 41.379 41.379 41.379 34.483 L 41.379 27.586 34.483 27.586 L 27.586 27.586 27.586 34.483 L 27.586 41.379 20.690 41.379 L 13.793 41.379 13.793 34.483 L 13.793 27.586 6.897 27.586 L 0.000 27.586 0.000 62.069 M96.552 34.483 L 96.552 41.379 89.655 41.379 L 82.759 41.379 82.759 62.069 L 82.759 82.759 89.655 82.759 L 96.552 82.759 96.552 89.655 L 96.552 96.552 117.241 96.552 L 137.931 96.552 137.931 89.655 L 137.931 82.759 117.241 82.759 L 96.552 82.759 96.552 75.862 L 96.552 68.966 117.241 68.966 L 137.931 68.966 137.931 55.172 L 137.931 41.379 131.034 41.379 L 124.138 41.379 124.138 34.483 L 124.138 27.586 110.345 27.586 L 96.552 27.586 96.552 34.483 M124.138 48.276 L 124.138 55.172 110.345 55.172 L 96.552 55.172 96.552 48.276 L 96.552 41.379 110.345 41.379 L 124.138 41.379 124.138 48.276 M386.207 68.966 L 386.207 82.759 365.517 82.759 L 344.828 82.759 344.828 68.966 L 344.828 55.172 365.517 55.172 L 386.207 55.172 386.207 68.966 M0.000 117.241 L 0.000 124.138 200.000 124.138 L 400.000 124.138 400.000 117.241 L 400.000 110.345 200.000 110.345 L 0.000 110.345 0.000 117.241 " stroke="none" fill-rule="evenodd"></path></g></svg>